<svg width="252" height="125" viewBox="0 0 252 125" fill="none" xmlns="http://www.w3.org/2000/svg">
<path d="M167.754 52.4748C167.134 52.9694 166.148 53.4146 164.801 53.8142C163.454 54.2099 161.978 54.4078 160.372 54.4078C158.557 54.4078 156.955 54.1338 155.555 53.5897C154.158 53.0455 153.226 52.3035 152.758 51.3598C151.982 49.9253 151.087 48.0303 150.079 45.6749C149.071 43.3232 147.982 40.671 146.818 37.7258C145.653 34.7806 144.489 31.7326 143.321 28.5857C142.157 25.4388 141.08 22.3338 140.098 19.2592C139.112 16.1884 138.26 13.3877 137.533 10.8611C138.153 10.2675 139.059 9.70812 140.254 9.19061C141.445 8.6693 142.739 8.41054 144.139 8.41054C145.848 8.41054 147.221 8.75682 148.256 9.44936C149.291 10.1419 150.045 11.3824 150.509 13.1632C152.115 18.4144 153.721 23.4525 155.326 28.2851C156.932 33.1139 158.641 38.0835 160.452 43.1825H160.84C161.928 39.9633 163.028 36.4967 164.143 32.779C165.254 29.0652 166.369 25.2371 167.484 21.2988C168.595 17.3604 169.645 13.4867 170.631 9.67006C171.407 9.32379 172.263 9.02699 173.196 8.77965C174.128 8.53231 175.136 8.40674 176.224 8.40674C177.933 8.40674 179.371 8.76823 180.536 9.48361C181.7 10.2028 182.282 11.3786 182.282 13.0148C182.282 14.008 182.012 15.5301 181.468 17.5849C180.924 19.6397 180.197 22.0179 179.291 24.7196C178.386 27.4213 177.4 30.1953 176.339 33.0416C175.277 35.8917 174.204 38.6276 173.116 41.2532C172.027 43.8788 171.004 46.1848 170.049 48.1635C169.09 50.146 168.325 51.5805 167.758 52.4748H167.754Z" fill="#34F5C6"/>
<path d="M191.679 41.1052L191.215 33.6737L210.481 30.7741C210.378 29.389 209.754 28.099 208.616 26.9118C207.475 25.7246 205.793 25.1272 203.567 25.1272C201.341 25.1272 199.294 25.8844 197.741 27.3951C196.189 28.9057 195.359 31.0481 195.256 33.8221L195.644 38.9477C196.109 41.6722 197.326 43.6166 199.294 44.781C201.261 45.9454 203.59 46.5276 206.284 46.5276C208.46 46.5276 210.504 46.2308 212.422 45.6372C214.336 45.0436 215.892 44.4233 217.083 43.7803C217.859 44.2255 218.495 44.8457 218.986 45.6372C219.476 46.4287 219.724 47.2734 219.724 48.1639C219.724 49.6517 219.115 50.8884 217.897 51.8777C216.68 52.8709 214.998 53.6129 212.848 54.1076C210.698 54.6023 208.251 54.8496 205.508 54.8496C201.52 54.8496 197.935 54.1304 194.75 52.6959C191.565 51.2613 189.065 49.1037 187.254 46.2308C185.439 43.3579 184.537 39.7658 184.537 35.4583C184.537 32.2886 185.066 29.5412 186.128 27.2086C187.189 24.8798 188.612 22.962 190.401 21.4514C192.189 19.9407 194.206 18.8144 196.459 18.0685C198.711 17.3265 201.055 16.9536 203.491 16.9536C207.064 16.9536 210.184 17.6347 212.852 18.997C215.519 20.3593 217.6 22.2048 219.104 24.5336C220.607 26.8624 221.356 29.5602 221.356 32.631C221.356 34.1683 220.915 35.3327 220.036 36.1242C219.153 36.9157 217.939 37.4142 216.387 37.612L191.683 41.1052H191.679Z" fill="#34F5C6"/>
<path d="M239.919 35.979H228.5V9.30451C229.017 9.15611 229.744 8.99629 230.676 8.82125C231.609 8.65002 232.59 8.5625 233.629 8.5625C235.855 8.5625 237.461 8.93541 238.447 9.67742C239.428 10.4194 239.923 11.7855 239.923 13.7642V35.9828L239.919 35.979ZM228.5 34.122H239.919V42.0711C239.919 43.46 240.384 44.476 241.316 45.1191C242.248 45.7621 243.569 46.0856 245.277 46.0856C246.053 46.0856 246.894 45.9981 247.8 45.8268C248.706 45.6556 249.47 45.4425 250.091 45.1952C250.505 45.6404 250.878 46.1883 251.217 46.8314C251.552 47.4745 251.723 48.2203 251.723 49.0612C251.723 50.7469 250.996 52.132 249.546 53.2241C248.097 54.3124 245.661 54.8604 242.244 54.8604C237.895 54.8604 234.516 53.9205 232.107 52.0369C229.699 50.1533 228.496 47.0825 228.496 42.8245V34.1296L228.5 34.122ZM235.802 27.3602V18.8898H250.718C250.977 19.2856 251.236 19.8563 251.495 20.5983C251.753 21.3404 251.883 22.1585 251.883 23.0489C251.883 24.5367 251.533 25.625 250.833 26.3176C250.132 27.0101 249.189 27.3564 247.998 27.3564H235.802V27.3602Z" fill="#34F5C6"/>
<path d="M153.3 96.908C152.47 95.2718 151.576 93.2931 150.621 90.9643C149.662 88.6355 148.665 85.8882 147.63 82.7146C146.595 79.5449 145.48 75.8805 144.289 71.7176C144.963 71.0745 145.83 70.519 146.892 70.0471C147.953 69.5753 149.106 69.3432 150.347 69.3432C151.953 69.3432 153.273 69.6666 154.308 70.3097C155.343 70.9528 156.119 72.1666 156.637 73.9513C157.828 77.5662 159.019 81.1583 160.21 84.7238C161.401 88.2892 162.619 91.8814 163.859 95.4963H164.171C165.05 93.2665 165.944 90.7398 166.85 87.9163C167.756 85.0929 168.597 82.1819 169.373 79.1872C170.149 76.1887 170.823 73.3044 171.394 70.5304C172.116 70.1841 172.897 69.8987 173.722 69.6742C174.552 69.4497 175.404 69.3394 176.287 69.3394C177.893 69.3394 179.278 69.6742 180.442 70.3439C181.607 71.0136 182.189 72.14 182.189 73.7229C182.189 75.1118 181.968 76.8204 181.527 78.8486C181.085 80.8805 180.503 83.0723 179.78 85.4239C179.053 87.7794 178.201 90.1804 177.215 92.631C176.23 95.0815 175.206 97.4484 174.148 99.7277C173.087 102.007 172.014 104.062 170.925 105.896C168.129 110.55 165.553 114.031 163.197 116.337C160.842 118.64 158.498 119.792 156.165 119.792C154.301 119.792 152.759 119.248 151.542 118.156C150.324 117.068 149.586 115.679 149.327 113.993C150.465 113.103 151.629 112.072 152.824 110.911C154.015 109.747 155.153 108.506 156.241 107.197C157.329 105.884 158.285 104.587 159.114 103.297C158.231 103.05 157.326 102.505 156.397 101.661C155.465 100.82 154.43 99.233 153.288 96.9042L153.3 96.908Z" fill="#1DCDFE"/>
<path d="M225.929 87.9163C225.929 91.7786 225.114 95.1348 223.482 97.9849C221.849 100.835 219.559 103.027 216.606 104.56C213.653 106.094 210.183 106.862 206.195 106.862C202.207 106.862 198.801 106.105 195.826 104.594C192.846 103.084 190.544 100.903 188.912 98.0572C187.279 95.2109 186.465 91.828 186.465 87.9163C186.465 84.0046 187.291 80.6484 188.95 77.8477C190.605 75.0509 192.922 72.8705 195.902 71.3104C198.881 69.7503 202.31 68.9702 206.195 68.9702C210.08 68.9702 213.573 69.7503 216.526 71.3104C219.479 72.8705 221.781 75.0738 223.44 77.9239C225.095 80.7739 225.925 84.1035 225.925 87.9163H225.929ZM206.195 77.6651C203.759 77.6651 201.83 78.5555 200.407 80.3402C198.98 82.1248 198.272 84.6514 198.272 87.9201C198.272 91.1888 198.973 93.7801 200.369 95.5381C201.766 97.2961 203.71 98.1751 206.195 98.1751C208.68 98.1751 210.624 97.2847 212.021 95.5001C213.417 93.7154 214.117 91.1888 214.117 87.9201C214.117 84.6514 213.417 82.1857 212.021 80.3782C210.624 78.5707 208.68 77.6651 206.195 77.6651Z" fill="#1DCDFE"/>
<path d="M8.45786 29.4877C18.9868 11.6337 39.2762 0.590977 59.8775 0.0506383C87.4234 -1.09092 114.573 17.1778 122.869 43.78C124.14 47.6689 125.015 51.8356 125.445 55.9072C128.744 85.8237 109.006 113.526 80.7719 122.597C78.8122 123.195 76.8677 123.933 74.7939 124.054C73.3708 124.146 71.959 123.994 70.5739 123.56C63.58 121.52 60.376 112.639 63.5838 106.463L64.6074 104.355C66.2931 101.105 68.306 99.1228 71.6889 98.4607C72.8266 98.1259 74.2155 97.6883 75.3266 97.2735C82.8495 94.412 89.5695 89.3739 94.2994 82.8518C111.126 59.3813 97.2864 29.1832 70.6006 21.4701C53.5457 16.432 34.1239 21.9534 22.3012 35.3705L20.4595 37.5623C14.6946 44.6019 4.10091 37.4177 8.46167 29.4877H8.45786Z" fill="#34F5C6"/>
<path d="M31.1005 118.008C11.6939 107.114 -1.43781 85.2604 0.126126 62.9087C0.323996 59.7161 3.07135 57.2846 6.26391 57.4825C9.1102 57.6575 11.3515 59.8683 11.6635 62.6005C12.2457 66.7748 13.4291 70.7969 15.1338 74.5145C19.974 85.3289 29.8333 93.8906 40.8189 97.3876C46.8464 99.3549 50.1379 105.839 48.1706 111.866C45.9712 118.929 37.2839 122.003 31.0966 118.008H31.1005Z" fill="#1DCDFE"/>
</svg>
